PathFileType	4	(X/Y/Z)	D:\TRACE\v60_Jaco2_6-2-23\BothDRS_Motion3_5-v60.trc
DataRate	CameraRate	NumFrames	NumMarkers	Units	OrigDataRate	OrigDataStartFrame	OrigNumFrames
100.00	100.00	      31	9	mm	100.00	1751	      7000
Frame#	Time	front left toe			Front right toe			aft left toe			aft right toe			Arm			FL body			FR body			AL Body			AR Body			
		X1	Y1	Z1	X2	Y2	Z2	X3	Y3	Z3	X4	Y4	Z4	X5	Y5	Z5	X6	Y6	Z6	X7	Y7	Z7	X8	Y8	Z8	X9	Y9	Z9	

1751	17.500	-196.48578	11.96122	-189.92921	198.19330	94.28251	-206.38123	-154.16570	100.94064	432.18057	195.18536	15.42465	419.45691	-16.15600	1094.14868	-557.93640	-82.91125	509.90195	-368.90674	75.68221	507.23398	-374.74252	-42.77826	560.44312	573.32050	109.40306	548.59955	567.64893	
1752	17.510	-196.47549	11.92775	-189.89134	199.44412	86.14949	-206.28978	-152.21075	91.51254	433.30542	195.25781	15.42122	419.34857	-16.00727	1093.91577	-558.06042	-82.64124	509.62534	-368.73349	76.13712	506.96124	-374.73709	-41.66365	560.34131	573.44391	109.49276	548.61151	567.53131	
1753	17.520	-196.46893	11.96337	-189.88458	200.27467	77.30374	-205.45242	-150.33203	82.99503	433.54950	195.35796	15.38167	419.36429	-16.12724	1093.76636	-558.14069	-82.27370	509.58450	-368.75494	76.40932	506.78281	-374.86142	-40.13648	560.44604	573.42596	112.01001	548.52838	567.46387	
1754	17.530	-196.41295	11.92487	-189.92230	200.43089	67.99844	-205.05116	-148.54660	74.73525	433.66406	195.44791	15.28786	419.27908	-16.20005	1093.66992	-558.21796	-81.90588	509.46777	-368.79843	76.76228	506.56686	-374.97229	-38.97488	560.41510	573.37006	112.10233	548.59979	567.29950	
1755	17.540	-196.40736	11.94508	-189.87267	202.19168	59.40680	-204.21783	-146.73071	65.90943	433.62320	195.71545	15.37800	419.29782	-16.18344	1093.54919	-558.32257	-81.74348	509.30539	-368.88831	77.07508	506.29739	-375.11328	-37.77724	560.35181	573.21393	114.33990	548.54254	567.10217	
1756	17.550	-196.38734	11.85843	-189.83279	202.81308	50.44793	-205.00447	-145.86742	57.19202	433.38550	195.66566	15.23757	419.20596	-16.34937	1093.36426	-558.67352	-81.31726	508.95468	-369.03717	76.58960	506.29550	-374.89212	-36.48886	560.29633	573.18787	114.80270	548.63593	566.76886	
1757	17.560	-196.33784	11.77116	-189.77048	203.87904	42.72537	-205.58807	-145.15529	49.20994	432.79202	195.82649	15.18597	419.07516	-15.91171	1092.88403	-558.99677	-81.07027	508.81094	-369.14703	77.79349	505.97409	-375.54095	-35.24858	560.18121	573.03778	117.23426	548.41656	566.61359	
1758	17.570	-196.34457	11.83017	-189.75034	206.09540	35.73401	-206.75606	-144.96658	41.86877	432.11328	195.86522	15.08312	418.97861	-15.60912	1092.60474	-559.43182	-80.67201	508.73019	-369.28891	78.43967	505.88950	-375.93985	-33.69323	560.12946	572.64093	118.12500	548.37592	566.07861	
1759	17.580	-196.31407	11.88209	-189.80644	206.20567	28.69199	-207.82423	-143.35085	34.47674	431.61023	196.00577	15.14387	418.97708	-15.41181	1092.37585	-559.81970	-80.16023	508.70566	-369.57019	78.63418	505.88437	-376.37784	-32.39183	560.21301	572.38080	118.55205	548.32153	565.55737	
1760	17.590	-196.29813	11.92399	-189.87210	207.41013	22.61049	-209.12381	-141.82986	28.39327	430.08728	196.16071	15.16970	418.88248	-15.17337	1092.31860	-560.26123	-79.67333	508.65436	-370.00284	79.26604	505.72784	-376.91299	-31.04451	560.23669	572.09167	120.66615	548.42047	565.12836	
1761	17.600	-196.33679	11.91677	-189.87936	207.51013	16.81914	-211.00595	-140.68837	21.97553	428.91034	196.11824	15.16227	418.77960	-14.84511	1092.37292	-560.81409	-79.04980	508.36450	-370.48792	79.76855	505.62515	-377.46097	-29.49810	560.35706	571.50861	122.01765	548.63354	564.30463	
1762	17.610	-196.40135	11.86014	-189.80771	208.50027	15.42384	-212.47554	-140.23030	21.02806	427.07990	195.94832	15.04240	418.70306	-14.55926	1092.55920	-561.35889	-78.70228	508.26648	-370.85352	79.93052	505.63553	-378.17258	-28.35598	560.50452	570.92725	123.32431	548.81409	563.62982	
1763	17.620	-196.42966	11.87381	-189.77873	208.19446	13.99708	-212.70662	-140.79562	19.74792	426.78665	195.66499	15.17046	418.60022	-14.53972	1092.46167	-562.00323	-78.12492	508.22195	-370.99304	80.65370	505.60962	-378.70786	-26.65917	561.72705	570.40344	124.76617	549.96692	562.99951	
1764	17.630	-196.21397	12.32506	-189.88478	208.70943	13.30882	-212.55009	-140.16408	20.06077	427.66037	195.71320	15.60071	418.33698	-14.30477	1092.41992	-563.29547	-77.60323	508.46057	-371.23581	80.40263	505.94150	-378.93137	-25.12358	563.47839	569.97791	126.03320	551.57288	562.25793	
1765	17.640	-194.15881	15.51995	-189.97760	209.21864	12.59259	-212.15576	-139.61031	19.64675	427.49194	195.33498	18.48434	419.03177	-14.50543	1092.63831	-565.14758	-77.47453	509.17682	-371.65182	80.43193	506.52142	-379.32471	-23.33897	565.02905	569.73041	127.77168	552.82556	561.85028	
1766	17.650	-189.35439	19.49318	-187.97548	209.31541	12.78974	-212.79129	-139.28250	19.54598	427.98575	193.25085	22.05783	422.10651	-14.74534	1092.49963	-566.68298	-77.20307	510.06592	-371.99106	80.62013	507.39029	-379.87393	-22.05136	565.82068	569.22229	129.06453	553.60077	561.29138	
1767	17.660	-185.56349	22.00128	-184.31427	209.62314	13.09263	-212.27499	-139.21852	19.60149	427.14020	190.59830	28.14555	424.54575	-14.15239	1092.20264	-567.50177	-77.06571	510.57559	-372.35843	80.96974	507.77615	-380.01273	-21.03779	566.60791	568.75262	130.39107	554.24426	560.88403	
1768	17.670	-183.92189	31.29518	-184.27585	208.85806	12.28996	-212.70551	-139.20631	19.65366	427.45285	188.90594	37.14953	424.52466	-13.86240	1092.14075	-567.51147	-76.77507	510.26596	-372.54242	81.24305	507.62650	-380.71811	-20.32561	567.36829	568.49127	131.16537	555.10596	560.33130	
1769	17.680	-183.79575	41.21329	-185.31671	208.66678	12.03792	-212.68172	-139.26462	19.76161	427.39334	188.79044	47.89890	423.46933	-13.64958	1092.55566	-567.62866	-76.20286	509.84909	-372.77734	82.34120	507.12207	-381.21866	-19.44692	567.86603	568.25378	132.11838	555.89697	560.10779	
1770	17.690	-184.06902	50.57810	-186.21188	208.95067	11.92211	-212.62453	-139.32162	19.84900	427.36884	191.49568	58.90409	421.91147	-13.39005	1092.79224	-567.92316	-75.58140	509.68787	-373.09012	82.98170	507.00577	-381.36493	-19.07085	567.91254	567.98157	132.56198	555.94312	559.96033	
1771	17.700	-184.29021	62.79937	-188.03513	208.59297	11.65779	-212.70322	-139.53004	19.68935	427.35880	195.44249	70.39043	420.17996	-13.06197	1092.43103	-568.46967	-74.88701	509.49380	-373.20413	83.58280	506.86044	-381.63324	-19.25732	567.45953	567.81677	132.74852	555.53943	559.86536	
1772	17.710	-183.78802	75.26369	-189.28102	209.00665	11.31465	-212.78888	-139.88707	19.61760	427.39688	198.99080	81.21451	418.62061	-11.90417	1091.26746	-568.75421	-74.27651	509.22916	-373.25702	84.05199	506.73230	-381.68262	-19.31394	567.08740	567.80518	132.54366	554.65002	559.95929	
1773	17.720	-183.55972	87.54974	-190.58868	209.05199	11.20310	-212.67949	-140.03210	19.39328	427.27322	201.91441	91.86346	417.16992	-10.92813	1090.32947	-568.99908	-73.81566	509.06665	-373.31656	84.65156	506.58200	-381.66302	-19.39707	566.58807	567.62665	131.91808	554.23914	559.98206	
1774	17.730	-182.86269	97.99242	-191.28284	209.05634	11.17315	-212.64371	-140.23604	19.34018	427.20435	204.41818	102.61023	416.02649	-9.27055	1089.84314	-569.18561	-73.50956	508.85535	-373.46573	84.52889	506.25748	-381.41568	-19.73841	566.21515	567.58008	131.75401	554.11182	560.03827	
1775	17.740	-182.90854	108.19279	-192.18053	208.90981	11.12791	-212.66745	-140.37675	19.40328	427.22348	204.66756	112.29088	415.17099	-7.83849	1089.73206	-569.17419	-73.35310	508.79822	-373.67966	84.75571	505.97549	-381.42358	-20.16487	566.09192	567.56927	131.56763	554.06561	560.11365	
1776	17.750	-182.27800	117.68684	-192.82623	208.79747	11.08409	-212.68246	-141.20213	19.98297	427.29767	206.72832	123.29057	414.58652	-7.03390	1089.75073	-569.49573	-72.95821	508.40280	-373.70959	84.89262	505.67178	-381.27551	-20.67205	566.20477	567.51294	131.45712	554.03687	560.13074	
1777	17.760	-182.18649	126.04225	-193.02713	208.67506	11.08264	-212.73311	-141.30882	19.98561	427.22751	206.94328	132.16193	414.30383	-6.04500	1089.43164	-569.39435	-72.96395	508.09341	-373.73645	85.12081	505.40094	-381.18451	-21.20977	566.33984	567.56104	131.20348	553.99542	560.21863	
1778	17.770	-182.17123	133.22943	-192.99782	208.57608	11.02466	-212.72562	-141.56305	19.95586	427.15671	207.76308	139.97906	413.79462	-5.11255	1088.73633	-569.72015	-72.83717	507.89932	-373.65094	85.23474	505.13528	-381.03946	-21.51688	566.50482	567.65851	130.82280	554.07861	560.41095	
1779	17.780	-182.52066	139.21503	-193.16142	208.49138	11.01842	-212.60739	-141.70497	19.97102	427.13852	208.57623	145.74419	413.43015	-4.68164	1087.82043	-569.94659	-72.58711	507.76309	-373.50781	85.38119	504.82687	-380.27365	-22.14861	566.63135	567.87769	130.08707	554.15826	560.83081	
1780	17.790	-183.65591	143.93999	-193.52617	208.21713	10.92602	-212.66064	-141.82202	19.96547	427.08585	210.31892	149.27046	413.19162	-4.08166	1087.31140	-570.17175	-72.04463	507.59073	-373.36630	85.82050	504.54272	-380.28305	-23.15547	566.83020	568.04852	129.25267	554.24341	561.34808	
1781	17.800	-184.67273	146.60118	-193.73158	208.07207	10.92422	-212.47893	-141.90414	20.01975	426.97238	211.26611	149.91675	413.48776	-3.44106	1086.91333	-570.28345	-71.77373	507.44031	-373.25952	86.04190	504.47733	-379.96436	-23.51831	566.99524	568.02850	128.55104	554.38904	561.58026	
